# xmcd CD database file
#
# Track frame offsets:
#	150
#	14084
#	28345
#	41050
#	51956
#	63306
#	77718
#	90675
#	103833
#	117461
#	129713
#	140674
#	153112
#	163714
#	175458
#	188967
#	202947
#	215738
#	226729
#	239863
#	252594
#
# Disc length: 3509 seconds
#
# Revision: 0
# Processed by: cddbd v1.5.1PL0 Copyright (c) Steve Scherf et al.
# Submitted via: CDex 1.50beta9
#
DISCID=400db315
DTITLE=Gene Ammons - You can depend on me - CD 1
DYEAR=1900
DGENRE=Jazz
TTITLE0=Concentration
TTITLE1=Red Top
TTITLE2=Idaho
TTITLE3=Concentration
TTITLE4=Blowin Red's Top
TTITLE5=El Sino
TTITLE6=Ineta
TTITLE7=Wild Leo
TTITLE8=Leaping Leo
TTITLE9=McDounal's Sprout
TTITLE10=Hold that Money
TTITLE11=Shermanski
TTITLE12=Harold the Fox
TTITLE13=Jeet Jet
TTITLE14=Odd-En-Dow
TTITLE15=Going for the okey doak
TTITLE16=E.A.A.K. Blues
TTITLE17=Blowing the Family Jewels
TTITLE18=Sugar-Coated
TTITLE19=Bues in Blues
TTITLE20=JayJay
EXTD=
EXTT0=
EXTT1=
EXTT2=
EXTT3=
EXTT4=
EXTT5=
EXTT6=
EXTT7=
EXTT8=
EXTT9=
EXTT10=
EXTT11=
EXTT12=
EXTT13=
EXTT14=
EXTT15=
EXTT16=
EXTT17=
EXTT18=
EXTT19=
EXTT20=
PLAYORDER=
